<svg xmlns="http://www.w3.org/2000/svg" height="512pt" version="1.1" viewBox="-66 0 512 512" width="512pt">
<g id="surface1">
<path d="M 235.023438 156.757812 L 78.417969 175.699219 L 111.640625 208.921875 L 256.941406 208.921875 L 359.921875 105.941406 L 253.980469 0 Z M 235.023438 156.757812 " style=" stroke:none;fill-rule:nonzero;fill:rgb(0%,0%,0%);fill-opacity:1;" />
<path d="M 84.933594 144.671875 L 208.050781 129.785156 L 222.9375 6.667969 Z M 84.933594 144.671875 " style=" stroke:none;fill-rule:nonzero;fill:rgb(0%,0%,0%);fill-opacity:1;" />
<path d="M 0 268.859375 L 39.332031 268.859375 L 72.691406 512 L 305.351562 512 L 338.710938 268.859375 L 380.636719 268.859375 L 380.636719 238.9375 L 0 238.9375 Z M 239.5 312.882812 L 269.601562 312.882812 L 258.550781 460.96875 L 228.453125 460.96875 Z M 174.011719 312.882812 L 204.03125 312.882812 L 204.03125 460.96875 L 174.011719 460.96875 Z M 138.542969 312.882812 L 149.589844 460.972656 L 119.492188 460.972656 L 108.441406 312.882812 Z M 138.542969 312.882812 " style=" stroke:none;fill-rule:nonzero;fill:rgb(0%,0%,0%);fill-opacity:1;" />
</g>
</svg>