<?xml version="1.0" encoding="iso-8859-1"?>
<!-- Generator: Adobe Illustrator 16.0.0, SVG Export Plug-In . SVG Version: 6.00 Build 0)  -->
<!DOCTYPE svg PUBLIC "-//W3C//DTD SVG 1.1//EN" "http://www.w3.org/Graphics/SVG/1.1/DTD/svg11.dtd">
<svg version="1.1" id="Capa_1" xmlns="http://www.w3.org/2000/svg" xmlns:xlink="http://www.w3.org/1999/xlink" x="0px" y="0px"
	 width="122.578px" height="122.578px" viewBox="0 0 122.578 122.578" style="enable-background:new 0 0 122.578 122.578;"
	 xml:space="preserve">
<g>
	<g>
		<path d="M30.131,33.465v38.649h8.385V27.806L64.11,10.21l25.024,17.57v54.497c2.137-1.768,4.254-3.559,6.299-5.436
			c0.705-0.647,1.398-1.303,2.087-1.959V33.012l5.007,3.425l4.733-6.921L66.516,1.652L64.162,0l-2.399,1.65L42.937,14.536V7.977
			H32.384v13.785l-10.987,7.522l4.737,6.918L30.131,33.465z"/>
		<path d="M65.832,71.18v-5.023c4.871-1.088,7.976-4.616,7.976-9.167c0-4.562-2.47-7.433-8.229-9.594
			c-3.879-1.551-5.124-2.465-5.124-3.758c0-1.486,1.327-2.37,3.549-2.37c2.77,0,4.644,0.872,5.762,1.394l1.245,0.572l1.797-6.121
			l-0.696-0.348c-1.848-0.923-3.771-1.441-5.994-1.607v-4.435h-5.731v4.796c-4.707,1.111-7.598,4.419-7.598,8.779
			c0,5.416,4.438,7.751,8.775,9.321c3.98,1.454,4.53,2.729,4.53,3.891c0,1.698-1.599,2.796-4.07,2.796
			c-2.277,0-4.787-0.71-6.886-1.947l-1.036-0.612l-1.796,6.246l0.567,0.378c1.703,1.136,4.467,1.96,7.229,2.181v4.629H65.832
			L65.832,71.18z"/>
		<path d="M121.967,90.518c-0.225-2.721-2.227-4.836-5.163-7.176c-2.056-1.637-6.037-3.547-10.499-3.547
			c-3.775,0-9.246,1.368-13.893,7.877c-4.18,5.336-9.42,7.498-13.674,8.315c0.381-0.954,0.629-2.099,0.637-3.716
			c0.037-9.053-7.176-15.856-17.151-15.901L26.615,76.4c-3.342,0-6.631,0.986-9.404,2.771v-4.633H0.592v48.039H17.21v-5.104
			c0.628,0.31,1.493,0.938,1.493,0.938c2.861,1.578,7.295,3.516,11.818,3.516h32.713c28.18,0,47.635-15.787,54.69-23.607
			C120.035,95.981,122.218,93.562,121.967,90.518z M11.644,85.149H5.835v-5.81h5.809L11.644,85.149L11.644,85.149z M113.613,94.428
			c-6.537,7.246-24.529,21.69-50.379,21.69H30.521c-5.531,0-11.487-4.326-11.541-4.368c-0.51-0.376-1.117-0.568-1.729-0.568
			c-0.013,0-0.027,0.004-0.042,0.004V85.588c0.636,0.01,1.27-0.171,1.795-0.57l0.635-0.479c1.976-1.501,4.452-2.329,6.961-2.329
			l35.595-0.031c5.679,0.024,11.399,3.287,11.369,10.068c0,3.916-2.611,4.118-2.751,4.152H44.722c-1.604,0-2.904,1.301-2.904,2.904
			s1.3,2.903,2.904,2.903h27.692l1.543-0.004c4.348-0.001,15.295-1.028,23.074-11.008c0.025-0.034,0.053-0.069,0.076-0.104
			c2.585-3.642,5.68-5.488,9.196-5.488c3.175,0,5.889,1.494,6.88,2.283c2.91,2.318,2.991,3.078,2.993,3.108
			C116.186,91.576,114.316,93.648,113.613,94.428z"/>
	</g>
</g>
<g>
</g>
<g>
</g>
<g>
</g>
<g>
</g>
<g>
</g>
<g>
</g>
<g>
</g>
<g>
</g>
<g>
</g>
<g>
</g>
<g>
</g>
<g>
</g>
<g>
</g>
<g>
</g>
<g>
</g>
</svg>
