<?xml version="1.0" encoding="iso-8859-1"?>
<!-- Generator: Adobe Illustrator 16.0.0, SVG Export Plug-In . SVG Version: 6.00 Build 0)  -->
<!DOCTYPE svg PUBLIC "-//W3C//DTD SVG 1.1//EN" "http://www.w3.org/Graphics/SVG/1.1/DTD/svg11.dtd">
<svg version="1.1" id="Capa_1" xmlns="http://www.w3.org/2000/svg" xmlns:xlink="http://www.w3.org/1999/xlink" x="0px" y="0px"
	 width="493.971px" height="493.971px" viewBox="0 0 493.971 493.971" style="enable-background:new 0 0 493.971 493.971;"
	 xml:space="preserve">
<g>
	<path d="M260.878,14.696L248.239,4.165l-0.063,0.061l-0.049-0.037l-11.923,10.275L55.691,169.188v1.087L0,218.354l24.366,28.232
		l31.319-27.048v270.267h390.37V215.721l24.192,19.948l23.724-28.777L260.878,14.696z M408.777,452.51H324.43
		c7.131-7.88,12.282-16.544,15.168-26.037c7.588-24.905,2.99-57.396-20.52-91.483c-6.863-9.956-13.227-17.537-20.149-24.369
		c-12.665-12.471-23.602-23.248-23.577-50.747l0.012-1.833l-1.011,1.522c-12.641,19.022-9.158,42.277-6.101,62.785
		c3.55,23.729,6.612,44.231-14.821,52.8c-2.046,0.565-4.107,0.857-6.142,0.857l0,0c-8.789-0.006-16.51-5.455-20.657-14.57
		c-4.481-9.883-14.397-47.496,46.296-116.863c37.053-44.957,31.006-78.222,27.432-97.762
		c-7.897,46.847-72.753,103.217-72.753,103.217c-30.945,34.69-62.953,70.568-73.277,111.706c-7.49,36.413-2.195,66.03,15.731,88.019
		c0.792,0.969,1.739,1.827,2.582,2.759H93V187.352L248.611,53.037l160.178,133.459V452.51H408.777z"/>
</g>
<g>
</g>
<g>
</g>
<g>
</g>
<g>
</g>
<g>
</g>
<g>
</g>
<g>
</g>
<g>
</g>
<g>
</g>
<g>
</g>
<g>
</g>
<g>
</g>
<g>
</g>
<g>
</g>
<g>
</g>
</svg>
