<?xml version="1.0" encoding="iso-8859-1"?>
<!-- Generator: Adobe Illustrator 16.0.0, SVG Export Plug-In . SVG Version: 6.00 Build 0)  -->
<!DOCTYPE svg PUBLIC "-//W3C//DTD SVG 1.1//EN" "http://www.w3.org/Graphics/SVG/1.1/DTD/svg11.dtd">
<svg version="1.1" id="Capa_1" xmlns="http://www.w3.org/2000/svg" xmlns:xlink="http://www.w3.org/1999/xlink" x="0px" y="0px"
	 width="36px" height="36px" viewBox="0 0 36 36" style="enable-background:new 0 0 36 36;" xml:space="preserve">
<g>
	<path d="M25.583,0.968L26.552,0c3.695,3.695,3.695,9.709,0,13.404l-0.968-0.967C28.745,9.275,28.745,4.129,25.583,0.968z
		 M23.909,10.764l0.969,0.969c2.771-2.772,2.771-7.287,0-10.059l-0.969,0.967C26.149,4.881,26.149,8.523,23.909,10.764z
		 M23.151,10.005c1.819-1.819,1.819-4.782-0.002-6.604l-0.968,0.968c1.289,1.288,1.289,3.382,0,4.669L23.151,10.005z M10.416,12.438
		c-3.162-3.163-3.161-8.309,0.001-11.47L9.449,0c-3.696,3.695-3.696,9.709,0,13.404L10.416,12.438z M11.122,11.732l0.969-0.971
		c-2.239-2.238-2.239-5.882,0-8.121l-0.969-0.967C8.35,4.445,8.35,8.959,11.122,11.732z M12.85,10.005l0.969-0.969
		c-1.287-1.287-1.287-3.382,0-4.669L12.85,3.4C11.03,5.223,11.03,8.186,12.85,10.005z M25.315,19.486l-0.104,0.146l0.647,0.839
		l0.375-0.231c-0.082-0.028-0.16-0.081-0.225-0.161C26.012,20.077,25.512,19.73,25.315,19.486z M29.157,24.842
		C29.157,31.006,24.163,36,18.002,36c-6.163,0-11.161-4.994-11.161-11.158c0-5.578,4.101-10.188,9.448-11.014l1.469-4.564
		c-0.929-0.121-1.65-0.906-1.65-1.869c0-1.043,0.848-1.892,1.894-1.892c1.046,0,1.894,0.849,1.894,1.892
		c0,0.963-0.723,1.748-1.651,1.869l1.469,4.563C25.061,14.652,29.157,19.264,29.157,24.842z M10.627,17.934
		c0.098-0.048,0.193-0.088,0.289-0.115c0,0,0.934-0.096,0.542-0.682C11.168,17.387,10.889,17.65,10.627,17.934z M12.162,26.062
		c0,0-0.148-0.49-0.896-0.49c0,0-0.447-0.491-0.85-0.491c0,0-0.146-1.373-0.896-1.076c0,0-0.101-0.544-0.399-0.491
		c0,0-0.195-0.541-0.545-0.393l-0.401-0.247c0,0-0.035,0.062-0.094,0.16c-0.098,0.562-0.15,1.139-0.15,1.725
		c0,2.853,1.198,5.425,3.111,7.247c0.003-0.086,0.023-0.17,0.075-0.247c0,0,0.198-0.394-0.054-0.735c0,0,0.252-0.346,0.252-0.789
		c0,0-0.252-0.78,0.396-0.881c0,0,0.898,0,0.449-1.57c0,0-0.049-0.44,0.301-0.883C12.463,26.898,12.811,25.964,12.162,26.062z
		 M12.764,16.199c-0.449,0.27-0.873,0.576-1.271,0.912c0.229,0.023,1.18,0.093,1.242-0.449L12.764,16.199z M26.29,20.254
		c0.188,0.048,0.394-0.009,0.543-0.07c-1.522-2.949-4.467-5.051-7.93-5.383c-0.798,0.78,0.185,1.104,0.185,1.104
		c0.351,0.244,1.092-0.198,1.092-0.198c0.304,0.342-0.847,0.838-0.847,0.838c-0.646,0.046-1.144,0.392-1.144,0.392
		c-0.299-0.441-0.6-0.101-0.6-0.101c-0.246,0.294,0.35,0.446,0.35,0.446c0.399,0.095,0.301,0.342,0.146,0.486
		c-0.146,0.146-0.793,0-0.793,0c-0.35,0.197-0.102,0.884-0.102,0.884h0.3c0.993,0.291,1.047-0.441,1.047-0.441
		c0.297,0,0.399-0.491,0.399-0.491c0.25,0.247,0.847-0.146,0.847-0.146c0.051,0.196,0.348,0.488,0.348,0.488
		c0.449,0.147,0.549,0.348,0.549,0.348c-0.449,0.097-0.051,0.293-0.051,0.293c0.602-0.247,0.148-0.589,0.148-0.589
		c-1.144-0.54-0.646-0.688-0.646-0.688c0.199,0.344,0.999,0.49,0.999,0.49c0.101,0.639,0.397,0.738,0.397,0.738
		c0.349,0.146,0.446-0.148,0.446-0.148c-0.349-0.097-0.399-0.393-0.399-0.393c-0.099-0.295,0.351-0.1,0.351-0.1
		c0.399,0.59,1.247,0.541,1.247,0.541c0.545-0.051,0.396,0.932,0.396,0.932c-0.599,0.396-1.746-0.295-1.746-0.295
		c0.103,0.347-0.347,0.393-0.347,0.393c-0.45-0.537-1.146-0.293-1.146-0.293c0.148-0.244-0.104-0.637-0.104-0.637
		c-0.396-0.1-1.041,0.098-1.041,0.098c-0.5,0.193-1.447,0.244-1.447,0.244c-0.447,0-0.746,0.887-0.746,0.887
		c-0.997,0.438-1.096,1.322-1.096,1.322c0,0.542-0.101,1.08-0.101,1.08c-0.35,0.539,0.646,1.129,0.646,1.129
		c0.602,1.128,1.347,0.641,1.347,0.641c0.599,0.242,1.896-0.246,1.896-0.246c0.147,0.488,0.845,0.344,0.845,0.344
		c0.248,0.146,0.149,0.64,0.149,0.64c-0.349,0.586,0.299,1.129,0.299,1.129c0.996,1.128,0.345,1.423,0.345,1.423
		c-0.692,0.688-0.242,1.275-0.242,1.275c0.494,1.083,0.494,2.005,0.494,2.005c1.694,0.245,2.293-1.022,2.293-1.022
		c0.547,0,0.547-0.49,0.547-0.49c0-0.59,0.352-0.832,0.352-0.832c0.797-0.541,0.648-1.623,0.648-1.623
		c-0.1-0.637,0.146-1.225,0.146-1.225c0.945-1.08,0.897-2.699,0.897-2.699c-0.397,0.195-0.647,0.047-0.647,0.047
		c-0.896-0.885-1.991-2.799-1.991-2.799c1.047,0.441,1.895,2.504,1.895,2.504c0.6-0.295,0.794-0.834,0.794-0.834
		C27.083,21.125,26.444,20.41,26.29,20.254z"/>
</g>
<g>
</g>
<g>
</g>
<g>
</g>
<g>
</g>
<g>
</g>
<g>
</g>
<g>
</g>
<g>
</g>
<g>
</g>
<g>
</g>
<g>
</g>
<g>
</g>
<g>
</g>
<g>
</g>
<g>
</g>
</svg>
