<?xml version="1.0" encoding="iso-8859-1"?>
<!-- Generator: Adobe Illustrator 19.0.0, SVG Export Plug-In . SVG Version: 6.00 Build 0)  -->
<svg version="1.1" id="Layer_1" xmlns="http://www.w3.org/2000/svg" xmlns:xlink="http://www.w3.org/1999/xlink" x="0px" y="0px"
	 viewBox="0 0 511.997 511.997" style="enable-background:new 0 0 511.997 511.997;" xml:space="preserve">
<g>
	<g>
		<g>
			<path d="M212.28,151.957c2.844,2.854,7.021,3.854,10.844,2.604c10.667-3.479,21.729-5.229,32.875-5.229
				c58.813,0,106.667,47.854,106.667,106.667c0,11.104-1.76,22.167-5.219,32.875c-1.24,3.813-0.229,8,2.604,10.833l107.917,107.917
				c2.01,2.021,4.729,3.125,7.542,3.125c0.448,0,0.896-0.021,1.354-0.083c3.271-0.417,6.167-2.333,7.844-5.167
				c3.896-6.646,5.958-14.063,5.958-21.5V149.332c0-23.521-19.135-42.667-42.667-42.667h-50.75c-5.615,0-11.115-2.271-15.083-6.25
				l-45.25-45.25c-7.938-7.938-18.938-12.5-30.167-12.5h-101.5c-11.229,0-22.229,4.563-30.167,12.5l-22.25,22.25
				c-4.167,4.167-4.167,10.917,0,15.083L212.28,151.957z M426.665,149.332c11.76,0,21.333,9.563,21.333,21.333
				c0,11.771-9.573,21.333-21.333,21.333s-21.333-9.563-21.333-21.333C405.332,158.894,414.905,149.332,426.665,149.332z"/>
			<path d="M508.873,478.706L33.291,3.124c-4.166-4.166-10.919-4.166-15.085,0L3.124,18.206c-4.166,4.166-4.166,10.919,0,15.085
				l73.374,73.374h-12.5c-23.564,0-42.667,19.102-42.667,42.667v234.667c0,23.564,19.103,42.667,42.667,42.667h332.5l82.208,82.208
				c4.166,4.166,10.919,4.166,15.085,0l15.082-15.082C513.038,489.625,513.038,482.872,508.873,478.706z M255.998,362.665
				c-58.813,0-106.667-47.854-106.667-106.667c0-21.182,6.367-41.465,17.786-58.714l15.78,15.78
				c-7.674,12.892-12.233,27.452-12.233,42.934c0,47.063,38.281,85.333,85.333,85.333c15.488,0,30.047-4.559,42.935-12.232
				l15.777,15.777C297.457,356.301,277.178,362.665,255.998,362.665z"/>
			<path d="M256.957,170.748c-3.75,0.208-8.271,2.521-9.958,6.521c-1.677,4-0.771,8.625,2.292,11.688l73.75,73.75
				c2.042,2.042,4.771,3.125,7.542,3.125c1.396,0,2.802-0.271,4.135-0.833c4-1.688,6.583-5.625,6.531-9.958
				C340.717,208.311,303.696,171.269,256.957,170.748z"/>
		</g>
	</g>
</g>
<g>
</g>
<g>
</g>
<g>
</g>
<g>
</g>
<g>
</g>
<g>
</g>
<g>
</g>
<g>
</g>
<g>
</g>
<g>
</g>
<g>
</g>
<g>
</g>
<g>
</g>
<g>
</g>
<g>
</g>
</svg>
