<?xml version="1.0" standalone="no"?>
<!DOCTYPE svg PUBLIC "-//W3C//DTD SVG 20010904//EN"
 "http://www.w3.org/TR/2001/REC-SVG-20010904/DTD/svg10.dtd">
<svg version="1.0" xmlns="http://www.w3.org/2000/svg"
 width="700.000000pt" height="700.000000pt" viewBox="0 0 700.000000 700.000000"
 preserveAspectRatio="xMidYMid meet">
<metadata>
Created by potrace 1.11, written by Peter Selinger 2001-2013
</metadata>
<g transform="translate(0.000000,700.000000) scale(0.100000,-0.100000)"
fill="#000000" stroke="none">
<path d="M3013 6318 c4 -14 9 -43 12 -64 4 -21 8 -46 10 -54 2 -8 7 -42 10
-75 3 -33 8 -71 11 -85 6 -36 6 -286 -1 -345 -5 -43 -13 -95 -31 -193 -3 -12
-20 -70 -39 -128 -77 -236 -219 -461 -456 -726 -35 -39 -71 -79 -79 -88 -8 -9
-60 -66 -116 -126 -159 -172 -222 -243 -291 -329 -35 -44 -72 -89 -81 -100
-80 -98 -222 -344 -276 -480 -16 -38 -32 -79 -36 -90 -25 -61 -72 -244 -85
-329 -3 -21 -8 -48 -10 -60 -33 -141 -25 -534 14 -731 29 -141 102 -356 158
-465 24 -46 124 -210 139 -230 7 -8 34 -44 61 -80 66 -90 250 -272 358 -356
298 -232 640 -401 986 -489 84 -22 215 -41 259 -39 173 9 431 72 625 151 98
41 247 114 292 145 23 15 44 28 47 28 8 0 83 52 171 118 436 330 710 829 780
1422 4 30 9 66 12 80 9 49 11 396 2 475 -51 468 -191 881 -448 1318 -69 118
-75 128 -110 177 -17 25 -51 74 -74 110 -67 100 -297 394 -334 425 -6 6 -28
30 -48 55 -41 50 -245 259 -353 362 -58 55 -303 267 -378 328 -179 144 -476
353 -668 470 l-39 24 6 -26z m603 -3528 c58 -80 103 -149 201 -307 7 -13 10
-23 7 -23 -4 0 0 -8 8 -17 25 -31 94 -174 132 -276 61 -164 88 -298 88 -439 0
-220 -68 -394 -193 -499 -75 -63 -97 -75 -184 -104 -190 -64 -407 -15 -549
123 -86 85 -131 172 -161 317 -15 69 -17 268 -3 328 46 208 74 287 168 472 90
177 171 309 287 463 l84 112 23 -27 c13 -16 54 -71 92 -123z"/>
</g>
</svg>
